{"glyphs":{"0":{"ha":694,"x_min":33,"x_max":660,"o":"m 167 867 q 203 904 167 867 q 347 940 240 940 q 527 867 454 940 q 630 688 600 794 q 660 451 660 581 q 642 274 660 357 q 588 125 624 192 q 490 19 551 58 q 347 -19 428 -19 q 166 49 239 -19 q 63 220 93 118 q 33 451 33 322 q 63 688 33 582 q 167 867 93 794 m 176 451 q 350 14 176 14 q 522 451 522 14 q 476 797 522 688 q 350 906 429 906 q 176 451 176 906 z "},"1":{"ha":694,"x_min":151,"x_max":556,"o":"m 419 113 q 556 28 419 28 l 556 0 l 158 0 l 158 28 q 294 117 294 28 l 294 733 q 267 802 294 793 q 151 783 240 811 l 151 803 l 408 933 l 419 933 l 419 113 z "},"2":{"ha":694,"x_min":32,"x_max":663,"o":"m 32 17 q 145 133 57 46 q 296 290 233 221 q 414 457 358 358 q 469 639 469 556 q 420 779 469 724 q 297 835 371 835 q 193 813 239 835 q 128 768 147 790 q 89 711 110 746 q 65 674 68 676 l 32 689 q 159 873 90 813 q 328 933 228 933 q 507 871 431 933 q 583 706 583 808 q 572 622 583 665 q 549 546 561 579 q 504 466 536 513 q 455 394 472 419 q 390 317 438 369 q 327 248 343 265 q 254 174 311 231 q 186 104 197 117 l 483 104 q 583 128 560 104 q 611 159 596 139 q 636 194 626 179 l 644 208 l 663 194 l 597 0 l 32 0 l 32 17 z "},"3":{"ha":694,"x_min":60,"x_max":596,"o":"m 376 565 q 439 711 439 625 q 401 813 439 769 q 301 856 364 856 q 229 844 263 856 q 172 810 196 832 q 133 771 147 788 q 103 729 118 754 q 85 701 88 704 l 65 717 q 183 887 122 840 q 347 933 244 933 q 494 883 442 933 q 547 757 547 832 q 527 665 547 707 q 486 601 507 622 q 428 550 465 579 q 444 542 429 549 q 467 531 460 535 q 490 516 474 526 q 516 496 507 506 q 540 472 525 486 q 563 439 554 457 q 579 399 571 421 q 592 350 588 378 q 596 292 596 322 q 500 72 596 157 q 238 -14 404 -14 q 60 56 60 -14 q 118 108 60 108 q 212 68 147 108 q 313 28 276 28 q 446 86 399 28 q 496 236 493 144 q 481 330 499 281 q 425 411 463 379 q 206 468 356 468 l 206 483 q 376 565 300 492 z "},"4":{"ha":694,"x_min":25,"x_max":649,"o":"m 461 933 l 521 933 l 521 311 l 649 311 l 649 222 l 521 222 l 521 0 l 403 0 l 403 222 l 25 222 l 25 311 l 461 933 m 78 311 l 403 311 l 403 761 l 78 311 z "},"5":{"ha":694,"x_min":46,"x_max":603,"o":"m 88 565 l 236 919 l 514 919 q 559 925 544 919 q 589 953 574 931 l 603 943 l 538 811 l 250 811 l 193 686 q 442 614 364 667 q 523 544 493 578 q 572 449 553 510 q 592 299 592 388 q 495 78 592 174 q 238 -17 399 -17 q 46 69 46 -17 q 106 122 46 122 q 206 75 151 122 q 313 28 260 28 q 431 90 375 28 q 488 264 488 151 q 301 524 488 438 q 219 548 272 538 q 126 561 165 558 l 88 565 z "},"6":{"ha":694,"x_min":47,"x_max":651,"o":"m 207 531 q 301 583 249 567 q 392 599 353 599 q 582 508 513 599 q 651 282 651 418 q 624 143 651 210 q 529 27 596 76 q 369 -22 463 -22 q 134 88 221 -22 q 47 361 47 199 q 156 719 47 565 q 606 949 299 925 l 606 925 q 389 832 468 897 q 251 653 310 767 l 207 531 m 175 333 q 240 96 175 175 q 382 17 306 17 q 525 282 525 17 q 469 468 525 407 q 346 529 413 529 q 199 478 250 529 q 175 333 175 444 z "},"7":{"ha":694,"x_min":29,"x_max":618,"o":"m 500 825 l 218 825 q 131 801 161 825 q 97 767 115 790 q 67 725 78 743 l 56 707 l 29 721 l 110 933 l 618 933 l 618 914 l 339 0 l 243 0 l 500 825 z "},"8":{"ha":694,"x_min":75,"x_max":611,"o":"m 403 518 q 564 365 517 431 q 611 215 611 300 q 535 47 611 115 q 340 -22 460 -22 q 213 1 268 -22 q 130 63 158 25 q 88 137 101 100 q 75 208 75 174 q 114 334 75 274 q 261 460 153 394 q 219 492 250 468 q 176 528 189 517 q 140 565 163 540 q 106 610 117 589 q 87 663 96 631 q 78 729 78 694 q 153 881 78 821 q 340 942 229 942 q 522 885 457 942 q 586 747 586 828 q 533 612 586 675 q 403 518 481 549 m 482 747 q 438 865 482 828 q 326 903 393 903 q 229 864 271 903 q 188 758 188 825 q 238 639 188 696 q 361 539 288 582 q 374 547 367 542 q 403 572 382 553 q 440 614 424 592 q 469 672 456 636 q 482 747 482 708 m 179 225 q 235 69 179 122 q 351 17 290 17 q 462 54 419 17 q 504 172 504 92 q 449 304 504 242 q 294 433 394 367 q 263 407 282 424 q 211 335 243 390 q 179 225 179 281 z "},"9":{"ha":694,"x_min":40,"x_max":644,"o":"m 485 401 q 391 349 443 365 q 300 333 339 333 q 110 424 179 333 q 40 650 40 514 q 68 789 40 722 q 163 905 96 856 q 322 954 229 954 q 558 844 471 954 q 644 571 644 733 q 536 213 644 367 q 86 -17 393 7 l 86 7 q 303 100 224 35 q 440 279 382 165 l 485 401 m 517 599 q 451 836 517 757 q 310 915 386 915 q 167 650 167 915 q 223 464 167 525 q 346 403 279 403 q 493 454 442 403 q 517 599 517 488 z "}," ":{"ha":347,"x_min":0,"x_max":0,"o":""},"!":{"ha":463,"x_min":147,"x_max":308,"o":"m 217 256 q 153 818 153 700 q 231 944 153 944 q 308 818 308 944 q 292 625 308 765 q 261 369 276 485 l 244 256 l 217 256 m 171 119 q 183 131 171 119 q 228 143 194 143 q 285 119 261 143 q 308 63 308 96 q 285 6 308 29 q 228 -18 261 -18 q 171 6 194 -18 q 147 63 147 29 q 171 119 147 96 z "},"\"":{"ha":567,"x_min":81,"x_max":482,"o":"m 138 617 q 94 858 104 810 q 157 944 81 944 q 218 858 229 944 l 175 617 l 138 617 m 390 617 q 347 858 357 810 q 356 922 340 899 q 408 944 372 944 q 471 858 482 944 l 428 617 l 390 617 z "},"#":{"ha":694,"x_min":-11,"x_max":703,"o":"m 193 557 l 42 557 l 42 639 l 208 639 l 261 933 l 351 933 l 299 639 l 478 639 l 532 933 l 622 933 l 569 639 l 703 639 l 703 557 l 554 557 l 522 374 l 649 374 l 649 293 l 507 293 l 494 217 q 467 65 481 142 l 453 -11 l 363 -11 l 417 293 l 236 293 l 222 217 q 196 65 210 142 l 182 -11 l 92 -11 l 146 293 l -11 293 l -11 374 l -11 374 l -11 374 l -10 374 l -10 374 l -8 374 l -7 374 l -6 374 l -4 374 l -3 374 l -1 374 l 0 374 l 1 374 l 3 374 l 4 374 l 6 374 l 7 374 l 8 374 l 10 374 l 11 374 l 13 374 l 14 374 l 15 374 l 17 374 l 18 374 l 19 374 l 21 374 l 22 374 l 24 374 l 26 374 l 28 374 l 29 374 l 31 374 l 32 374 l 33 374 l 36 374 l 38 374 l 39 374 l 40 374 l 43 374 l 44 374 l 46 374 l 49 374 l 50 374 l 51 374 l 54 374 l 56 374 l 57 374 l 60 374 l 61 374 l 64 374 l 65 374 l 68 374 l 69 374 l 72 374 l 74 374 l 76 374 l 78 374 l 81 374 l 82 374 l 85 374 l 86 374 l 89 374 l 92 374 l 93 374 l 96 374 l 97 374 l 100 374 l 103 374 l 104 374 l 107 374 l 110 374 l 111 374 l 114 374 l 117 374 l 119 374 l 121 374 l 124 374 l 126 374 l 129 374 l 131 374 l 133 374 l 136 374 l 139 374 l 142 374 l 143 374 l 146 374 l 160 374 l 193 557 m 464 557 l 283 557 l 251 374 l 251 374 l 251 374 l 253 374 l 253 374 l 254 374 l 256 374 l 256 374 l 257 374 l 258 374 l 260 374 l 261 374 l 263 374 l 264 374 l 265 374 l 267 374 l 268 374 l 269 374 l 271 374 l 272 374 l 274 374 l 275 374 l 276 374 l 278 374 l 279 374 l 281 374 l 282 374 l 285 374 l 286 374 l 288 374 l 289 374 l 290 374 l 292 374 l 293 374 l 294 374 l 297 374 l 299 374 l 300 374 l 301 374 l 303 374 l 306 374 l 307 374 l 308 374 l 311 374 l 313 374 l 314 374 l 317 374 l 318 374 l 319 374 l 322 374 l 324 374 l 326 374 l 328 374 l 329 374 l 332 374 l 333 374 l 336 374 l 338 374 l 340 374 l 342 374 l 344 374 l 346 374 l 349 374 l 350 374 l 353 374 l 356 374 l 357 374 l 360 374 l 361 374 l 364 374 l 367 374 l 368 374 l 371 374 l 374 374 l 375 374 l 378 374 l 381 374 l 382 374 l 385 374 l 388 374 l 389 374 l 392 374 l 394 374 l 397 374 l 399 374 l 401 374 l 404 374 l 407 374 l 410 374 l 411 374 l 414 374 l 417 374 l 431 374 l 464 557 z "},"$":{"ha":694,"x_min":63,"x_max":631,"o":"m 369 881 l 369 540 q 381 535 374 539 q 393 528 389 531 q 431 508 399 525 q 473 484 463 490 q 511 460 483 478 q 550 430 539 442 q 581 397 561 418 q 608 355 600 375 q 624 308 617 335 q 631 250 631 281 q 557 76 631 142 q 369 0 483 11 l 369 -129 l 317 -129 l 317 -3 q 167 18 238 -1 q 63 58 97 38 l 63 249 l 86 249 q 161 93 86 175 q 317 38 214 35 l 317 38 l 317 38 l 317 38 l 317 39 l 317 39 l 317 39 l 317 40 l 317 40 l 317 42 l 317 42 l 317 43 l 317 44 l 317 44 l 317 46 l 317 47 l 317 49 l 317 50 l 317 51 l 317 53 l 317 54 l 317 56 l 317 57 l 317 58 l 317 60 l 317 61 l 317 63 l 317 64 l 317 65 l 317 67 l 317 68 l 317 69 l 317 71 l 317 72 l 317 74 l 317 75 l 317 76 l 317 78 l 317 79 l 317 81 l 317 82 l 317 83 l 317 85 l 317 86 l 317 88 l 317 89 l 317 90 l 317 92 l 317 93 l 317 94 l 317 96 l 317 97 l 317 99 l 317 100 l 317 101 l 317 103 l 317 104 l 317 106 l 317 107 l 317 108 l 317 110 l 317 111 l 317 113 l 317 114 l 317 115 l 317 117 l 317 118 l 317 121 l 317 122 l 317 124 l 317 125 l 317 126 l 317 128 l 317 129 l 317 132 l 317 133 l 317 135 l 317 136 l 317 138 l 317 139 l 317 142 l 317 143 l 317 144 l 317 146 l 317 149 l 317 150 l 317 151 l 317 153 l 317 156 l 317 157 l 317 158 l 317 160 l 317 163 l 317 164 l 317 165 l 317 168 l 317 169 l 317 171 l 317 172 l 317 175 l 317 176 l 317 178 l 317 181 l 317 182 l 317 185 l 317 186 l 317 188 l 317 190 l 317 192 l 317 193 l 317 196 l 317 197 l 317 200 l 317 201 l 317 203 l 317 206 l 317 207 l 317 210 l 317 211 l 317 214 l 317 215 l 317 217 l 317 219 l 317 221 l 317 224 l 317 225 l 317 228 l 317 229 l 317 232 l 317 233 l 317 236 l 317 238 l 317 240 l 317 242 l 317 244 l 317 246 l 317 249 l 317 250 l 317 253 l 317 256 l 317 257 l 317 260 l 317 261 l 317 264 l 317 265 l 317 268 l 317 271 l 317 272 l 317 275 l 317 276 l 317 279 l 317 282 l 317 283 l 317 286 l 317 288 l 317 290 l 317 293 l 317 294 l 317 297 l 317 300 l 317 301 l 317 304 l 317 307 l 317 308 l 317 311 l 317 314 l 317 315 l 317 318 l 317 321 l 317 322 l 317 325 l 317 328 l 317 331 l 317 332 l 317 335 l 317 338 l 317 339 l 317 342 l 317 344 l 317 347 l 317 349 l 317 351 l 317 354 l 317 357 l 317 358 l 317 361 l 317 364 l 317 367 l 317 369 l 317 371 l 317 374 l 317 376 l 317 379 l 317 382 l 317 383 l 317 386 l 317 389 l 317 392 l 317 394 l 317 397 l 317 399 l 317 401 l 317 404 l 317 407 l 317 410 l 317 413 l 317 415 l 317 417 l 317 419 l 317 432 q 304 440 313 435 q 292 447 296 444 q 255 469 283 453 q 219 490 226 485 q 188 509 211 494 q 158 531 165 524 q 135 551 151 538 q 113 576 118 565 q 97 602 107 586 q 83 633 86 618 q 77 667 81 649 q 74 708 74 686 q 138 853 74 792 q 317 921 201 915 l 317 1015 l 369 1015 l 369 919 q 488 894 432 914 q 569 856 544 874 l 594 839 l 594 685 l 578 685 q 569 708 575 692 q 562 728 564 724 q 554 746 560 733 q 545 764 549 758 q 535 779 542 769 q 524 796 529 789 q 509 812 518 803 q 490 829 500 821 q 369 881 442 874 m 317 571 l 317 882 q 219 840 256 876 q 183 744 183 803 q 217 649 183 688 q 317 571 251 610 m 369 401 l 369 42 q 517 201 517 69 q 484 312 517 271 q 369 401 451 353 z "},"%":{"ha":1157,"x_min":68,"x_max":1094,"o":"m 943 501 q 1059 426 1024 501 q 1064 244 1094 351 q 958 58 1032 133 q 793 -17 885 -17 q 653 66 693 -17 q 644 261 613 149 q 758 435 675 368 q 943 501 840 501 m 817 929 l 824 940 l 900 940 l 361 -17 l 286 -17 l 786 872 q 617 825 694 825 q 519 842 565 825 q 519 672 549 769 q 414 486 488 561 q 249 411 340 411 q 108 494 149 411 q 100 689 68 576 q 213 863 131 796 q 399 929 296 929 q 486 894 451 929 q 619 861 557 861 q 817 929 719 861 m 408 889 q 215 681 299 889 q 186 540 186 611 q 204 484 186 508 q 254 454 222 460 q 390 513 332 447 q 478 669 449 579 q 486 826 507 764 q 408 889 465 889 m 953 461 q 760 253 843 461 q 731 113 731 183 q 749 56 731 81 q 799 26 767 32 q 935 85 876 19 q 1022 242 993 151 q 1031 399 1051 336 q 953 461 1010 461 z "},"&":{"ha":1081,"x_min":44,"x_max":1043,"o":"m 460 536 l 658 257 q 751 410 715 332 q 778 524 788 489 q 772 536 776 531 q 762 545 768 542 q 751 551 756 549 q 737 556 747 554 q 722 559 726 558 q 706 562 718 560 q 690 564 693 564 l 690 590 l 964 590 l 964 564 q 885 533 910 564 q 814 410 869 515 q 686 215 758 304 q 879 81 796 81 q 1026 158 960 81 l 1043 139 q 942 15 992 53 q 826 -22 892 -22 q 614 101 701 -22 l 601 119 q 285 -22 454 -22 q 119 42 193 -22 q 56 210 44 106 q 136 390 68 321 q 324 522 204 458 q 310 553 319 532 q 298 583 301 575 q 288 608 294 592 q 280 635 282 625 q 274 659 278 644 q 270 688 271 674 q 269 719 269 703 q 338 875 269 811 q 499 939 406 939 q 625 892 574 939 q 676 772 676 846 q 620 632 676 686 q 460 536 564 578 m 444 581 q 563 667 522 619 q 604 783 604 715 q 573 863 604 829 q 496 897 542 897 q 420 863 454 897 q 386 775 386 829 q 444 581 386 661 m 353 481 q 243 401 285 443 q 192 300 201 358 q 219 133 174 196 q 338 58 265 71 q 571 164 447 39 l 353 481 z "},"'":{"ha":250,"x_min":49,"x_max":197,"o":"m 106 617 q 63 858 72 810 q 125 944 49 944 q 186 858 197 944 l 143 617 l 106 617 z "},"(":{"ha":463,"x_min":69,"x_max":419,"o":"m 419 950 l 419 915 q 283 785 336 878 q 210 586 229 692 q 192 354 192 481 q 419 -208 192 -93 l 419 -242 q 160 2 251 -150 q 69 356 69 154 q 163 712 69 557 q 419 950 256 867 z "},")":{"ha":463,"x_min":43,"x_max":393,"o":"m 43 950 q 300 712 207 867 q 393 356 393 557 q 302 2 393 154 q 43 -242 211 -150 l 43 -208 q 271 354 271 -93 q 252 586 271 481 q 180 785 233 692 q 43 915 126 878 l 43 950 z "},"*":{"ha":694,"x_min":69,"x_max":625,"o":"m 336 675 q 317 818 336 758 q 297 881 297 878 q 347 949 297 949 q 397 881 397 949 q 378 818 397 878 q 358 675 358 758 q 444 737 411 706 q 492 788 476 768 q 515 813 507 807 q 600 804 574 846 q 565 725 624 761 q 533 718 557 721 q 465 701 508 715 q 369 657 422 688 q 501 603 440 615 q 565 589 563 592 q 600 513 625 557 q 515 501 575 471 q 492 527 507 507 q 444 578 476 547 q 358 639 411 608 q 378 496 358 556 q 397 433 397 436 q 347 365 397 365 q 297 433 297 365 q 317 496 297 436 q 336 639 336 556 q 251 578 283 608 q 203 527 218 547 q 179 501 188 507 q 94 513 119 471 q 129 589 69 557 q 192 603 132 592 q 325 657 253 615 q 230 701 272 688 q 163 718 188 715 q 129 725 138 721 q 94 804 71 761 q 179 813 121 846 q 203 788 188 807 q 251 737 218 768 q 336 675 283 706 z "},"+":{"ha":783,"x_min":65,"x_max":728,"o":"m 65 401 l 349 401 l 349 704 l 446 704 l 446 401 l 728 401 l 728 311 l 446 311 l 446 1 l 349 1 l 349 311 l 65 311 l 65 401 z "},",":{"ha":347,"x_min":90,"x_max":261,"o":"m 174 146 q 239 117 217 146 q 261 49 261 89 q 251 -33 261 8 q 224 -103 242 -74 q 178 -156 207 -132 q 131 -189 150 -181 l 110 -199 l 110 -178 q 186 -94 165 -142 q 175 -24 214 -17 l 174 -24 q 115 1 139 -24 q 90 60 90 25 q 115 120 90 94 q 174 146 139 146 z "},"-":{"ha":463,"x_min":64,"x_max":393,"o":"m 64 267 l 64 365 l 393 365 l 393 267 l 64 267 z "},".":{"ha":347,"x_min":93,"x_max":254,"o":"m 117 119 q 128 131 117 119 q 174 143 140 143 q 231 119 207 143 q 254 63 254 96 q 231 6 254 29 q 174 -18 207 -18 q 117 6 140 -18 q 93 63 93 29 q 117 119 93 96 z "},"/":{"ha":386,"x_min":-10,"x_max":419,"o":"m 340 961 l 419 961 l 69 -147 l -10 -147 l 340 961 z "},":":{"ha":386,"x_min":107,"x_max":268,"o":"m 131 119 q 142 131 131 119 q 188 143 154 143 q 244 119 221 143 q 268 63 268 96 q 244 6 268 29 q 188 -18 221 -18 q 131 6 154 -18 q 107 63 107 29 q 131 119 107 96 m 131 608 q 142 620 131 608 q 188 632 154 632 q 244 608 221 632 q 268 551 268 585 q 244 494 268 518 q 188 471 221 471 q 131 494 154 471 q 107 551 107 518 q 131 608 107 585 z "},";":{"ha":386,"x_min":104,"x_max":275,"o":"m 131 608 q 142 620 131 608 q 188 632 154 632 q 244 608 221 632 q 268 551 268 585 q 244 494 268 518 q 188 471 221 471 q 131 494 154 471 q 107 551 107 518 q 131 608 107 585 m 188 146 q 253 117 231 146 q 275 49 275 89 q 265 -33 275 8 q 238 -103 256 -74 q 192 -156 221 -132 q 144 -189 164 -181 l 124 -199 l 124 -178 q 200 -94 179 -142 q 189 -24 228 -17 l 188 -24 q 128 1 153 -24 q 104 60 104 25 q 128 120 104 94 q 188 146 153 146 z "},"<":{"ha":783,"x_min":51,"x_max":742,"o":"m 51 313 l 51 410 l 742 736 l 742 632 l 151 361 l 742 90 l 742 -14 l 51 313 z "},"=":{"ha":783,"x_min":50,"x_max":740,"o":"m 740 546 l 740 449 l 50 449 l 50 546 l 740 546 m 740 278 l 740 179 l 50 179 l 50 278 l 740 278 z "},">":{"ha":783,"x_min":42,"x_max":732,"o":"m 732 313 l 42 -14 l 42 90 l 632 361 l 42 632 l 42 736 l 732 410 l 732 313 z "},"?":{"ha":617,"x_min":69,"x_max":546,"o":"m 290 228 q 310 364 290 299 q 354 473 331 429 q 398 587 378 517 q 418 736 418 657 q 381 856 418 810 q 276 903 344 903 q 190 883 236 903 q 144 819 144 863 q 168 765 144 793 q 192 708 192 736 q 176 670 192 686 q 128 654 161 654 q 83 684 97 654 q 69 750 69 714 q 139 890 69 842 q 318 938 208 938 q 479 876 413 938 q 546 725 546 815 q 522 616 546 668 q 466 522 499 564 q 400 438 433 481 q 343 342 367 396 q 319 228 319 288 l 290 228 m 242 119 q 253 131 242 119 q 299 143 265 143 q 356 119 332 143 q 379 63 379 96 q 356 6 379 29 q 299 -18 332 -18 q 242 6 265 -18 q 218 63 218 29 q 242 119 218 96 z "},"@":{"ha":1279,"x_min":40,"x_max":1213,"o":"m 747 181 q 640 81 710 118 q 500 60 571 43 q 392 168 428 76 q 393 394 357 260 q 537 599 435 529 q 739 646 639 668 q 832 571 796 633 l 847 638 l 958 638 l 861 243 q 847 163 843 190 q 899 125 850 136 q 1035 180 975 107 q 1129 372 1096 253 q 1126 576 1156 468 q 1018 769 1096 685 q 839 878 940 854 q 578 863 711 907 q 342 711 444 818 q 208 435 243 606 q 217 143 174 264 q 344 -47 251 35 q 549 -154 436 -129 q 986 -83 742 -197 l 1011 -129 q 550 -211 733 -246 q 121 107 257 -156 q 84 450 40 260 q 276 771 128 640 q 558 919 407 885 q 844 924 710 954 q 1051 811 963 896 q 1176 609 1140 726 q 1185 374 1213 492 q 1063 134 1151 235 q 882 54 974 33 q 790 99 819 68 q 747 181 761 131 m 739 585 q 613 529 686 597 q 513 350 539 461 q 510 188 489 244 q 569 124 532 132 q 669 160 610 114 q 764 308 729 206 q 803 497 806 422 q 739 585 801 571 z "},"A":{"ha":1003,"x_min":21,"x_max":996,"o":"m 282 299 l 206 117 q 199 79 201 99 q 223 44 197 60 q 300 28 249 28 l 300 0 l 21 0 l 21 28 q 88 49 65 28 q 129 113 111 71 l 485 933 l 504 933 l 874 113 q 996 28 913 28 l 996 0 l 626 0 l 626 28 q 699 36 672 28 q 729 60 725 44 q 731 87 733 75 q 721 117 729 99 l 644 299 l 282 299 m 618 360 l 463 728 l 308 360 l 618 360 z "},"B":{"ha":926,"x_min":40,"x_max":836,"o":"m 649 488 q 836 257 836 425 q 803 135 836 188 q 717 55 771 83 q 603 13 663 26 q 479 0 543 0 l 40 0 l 40 28 q 176 117 176 28 l 176 800 q 40 889 176 889 l 40 917 l 451 917 q 794 688 794 917 q 649 488 794 538 m 382 457 l 315 457 l 315 113 q 382 56 315 56 q 606 94 535 56 q 678 257 678 133 q 599 406 678 356 q 382 457 521 457 m 382 507 q 585 549 521 507 q 650 688 650 590 q 586 822 650 783 q 382 861 522 861 q 315 804 315 861 l 315 507 l 382 507 z "},"C":{"ha":926,"x_min":40,"x_max":876,"o":"m 815 936 l 849 936 l 863 625 l 829 625 q 720 812 804 742 q 519 882 636 882 q 282 764 364 882 q 200 458 200 646 q 282 158 200 272 q 519 43 364 43 q 642 57 583 43 q 737 91 700 71 q 801 131 774 111 q 842 165 829 151 l 853 179 l 876 153 q 506 -18 735 -18 q 167 119 293 -18 q 40 460 40 256 q 170 800 40 661 q 499 939 300 939 q 610 928 556 939 q 694 907 664 918 q 752 890 725 896 q 793 895 779 885 q 815 936 807 906 z "},"D":{"ha":1003,"x_min":13,"x_max":958,"o":"m 424 0 l 13 0 l 13 28 q 149 117 149 28 l 149 800 q 13 889 149 889 l 13 917 l 424 917 q 622 891 529 917 q 792 813 715 865 q 914 669 869 760 q 958 458 958 578 q 914 248 958 339 q 792 104 869 157 q 622 26 715 51 q 424 0 529 0 m 382 861 q 311 849 335 861 q 288 804 288 838 l 288 113 q 311 67 288 79 q 382 56 335 56 q 698 167 592 56 q 804 458 804 278 q 698 750 804 639 q 382 861 592 861 z "},"E":{"ha":849,"x_min":13,"x_max":822,"o":"m 288 513 l 514 513 q 651 646 651 513 l 682 646 l 682 318 l 651 318 q 514 451 651 451 l 288 451 l 288 113 q 356 56 288 56 l 556 56 q 702 110 631 56 q 793 238 774 165 l 822 238 l 757 0 l 13 0 l 13 28 q 149 117 149 28 l 149 800 q 13 889 149 889 l 13 917 l 757 917 l 757 721 l 728 721 q 668 828 707 794 q 556 861 629 861 l 356 861 q 288 804 288 861 l 288 513 z "},"F":{"ha":772,"x_min":13,"x_max":757,"o":"m 13 0 l 13 28 q 149 117 149 28 l 149 800 q 13 889 149 889 l 13 917 l 757 917 l 757 721 l 728 721 q 668 828 707 794 q 556 861 629 861 l 356 861 q 288 804 288 861 l 288 513 l 500 513 q 638 646 638 513 l 668 646 l 668 318 l 638 318 q 500 451 638 451 l 288 451 l 288 117 q 424 28 288 28 l 424 0 l 13 0 z "},"G":{"ha":1003,"x_min":40,"x_max":978,"o":"m 506 -18 q 167 119 293 -18 q 40 460 40 256 q 170 800 40 661 q 499 939 300 939 q 610 928 556 939 q 694 907 664 918 q 752 890 725 896 q 793 895 779 885 q 815 936 807 906 l 849 936 l 863 625 l 829 625 q 720 812 804 742 q 519 882 636 882 q 282 764 364 882 q 200 458 200 646 q 282 158 200 272 q 519 43 364 43 q 673 61 601 43 q 744 108 744 79 l 744 375 q 718 442 744 419 q 622 464 692 464 l 622 492 l 978 492 l 978 464 q 903 442 922 464 q 883 379 883 421 l 883 83 q 867 72 878 79 q 819 48 856 65 q 741 17 782 31 q 636 -7 700 4 q 506 -18 572 -18 z "},"H":{"ha":1003,"x_min":26,"x_max":978,"o":"m 301 438 l 301 113 q 438 28 301 28 l 438 0 l 26 0 l 26 28 q 163 117 163 28 l 163 800 q 26 889 163 889 l 26 917 l 438 917 l 438 889 q 301 804 301 889 l 301 499 l 703 499 l 703 800 q 567 889 703 889 l 567 917 l 978 917 l 978 889 q 842 804 842 889 l 842 113 q 978 28 842 28 l 978 0 l 567 0 l 567 28 q 703 117 703 28 l 703 438 l 301 438 z "},"I":{"ha":463,"x_min":26,"x_max":438,"o":"m 301 113 q 438 28 301 28 l 438 0 l 26 0 l 26 28 q 163 117 163 28 l 163 800 q 26 889 163 889 l 26 917 l 438 917 l 438 889 q 301 804 301 889 l 301 113 z "},"J":{"ha":540,"x_min":15,"x_max":521,"o":"m 246 103 l 246 800 q 110 889 246 889 l 110 917 l 521 917 l 521 889 q 385 804 385 889 l 385 182 q 375 120 385 157 q 342 38 365 83 q 271 -40 319 -8 q 156 -72 222 -72 q 58 -44 101 -72 q 15 29 15 -17 q 35 76 15 56 q 81 96 54 96 q 126 82 104 96 q 146 51 149 68 q 153 5 142 31 q 189 -21 164 -21 q 232 17 218 -21 q 246 103 246 56 z "},"K":{"ha":1003,"x_min":26,"x_max":979,"o":"m 301 415 l 301 113 q 438 28 301 28 l 438 0 l 26 0 l 26 28 q 163 117 163 28 l 163 800 q 26 889 163 889 l 26 917 l 438 917 l 438 889 q 301 804 301 889 l 301 489 l 628 800 q 650 835 644 817 q 634 872 656 854 q 554 889 613 889 l 554 917 l 924 917 l 924 889 q 732 804 814 889 l 431 532 l 829 113 q 875 69 858 83 q 919 41 892 54 q 979 28 947 28 l 979 0 l 554 0 l 554 28 q 620 34 594 28 q 654 49 646 40 q 661 71 663 58 q 653 94 660 83 q 635 117 646 106 l 328 438 q 301 415 311 424 z "},"L":{"ha":849,"x_min":13,"x_max":822,"o":"m 424 917 l 424 889 q 288 800 288 889 l 288 113 q 356 56 288 56 l 556 56 q 702 110 631 56 q 793 238 774 165 l 822 238 l 757 0 l 13 0 l 13 28 q 149 117 149 28 l 149 800 q 13 889 149 889 l 13 917 l 424 917 z "},"M":{"ha":1235,"x_min":26,"x_max":1215,"o":"m 218 756 l 218 113 q 354 28 218 28 l 354 0 l 26 0 l 26 28 q 163 117 163 28 l 163 800 q 26 889 163 889 l 26 917 l 303 917 l 621 217 l 933 917 l 1215 917 l 1215 889 q 1079 804 1079 889 l 1079 113 q 1215 28 1079 28 l 1215 0 l 804 0 l 804 28 q 940 117 940 28 l 940 793 l 585 0 l 567 0 l 218 756 z "},"N":{"ha":1003,"x_min":13,"x_max":985,"o":"m 210 749 l 210 113 q 346 28 210 28 l 346 0 l 13 0 l 13 28 q 149 117 149 28 l 149 800 q 13 889 149 889 l 13 917 l 249 917 l 788 256 l 788 800 q 651 889 788 889 l 651 917 l 985 917 l 985 889 q 849 804 849 889 l 849 -17 l 829 -17 l 210 749 z "},"O":{"ha":1003,"x_min":40,"x_max":957,"o":"m 499 939 q 830 801 703 939 q 957 460 957 663 q 829 122 957 260 q 506 -17 701 -17 q 174 122 308 -17 q 40 460 40 261 q 170 800 40 661 q 499 939 300 939 m 506 889 q 276 769 353 889 q 200 458 200 649 q 278 151 200 274 q 492 29 357 29 q 718 150 639 29 q 797 458 797 271 q 724 769 797 649 q 506 889 651 889 z "},"P":{"ha":772,"x_min":13,"x_max":753,"o":"m 699 812 q 726 782 699 812 q 753 660 753 751 q 697 508 753 568 q 565 425 642 447 q 394 403 489 403 l 274 403 l 274 113 q 410 28 274 28 l 410 0 l 13 0 l 13 28 q 108 50 82 28 q 135 117 135 72 l 135 800 q 108 867 135 844 q 13 889 82 889 l 13 917 l 410 917 q 571 894 497 917 q 699 812 644 872 m 340 451 q 608 660 608 451 q 340 861 608 861 q 274 804 274 861 l 274 451 l 340 451 z "},"Q":{"ha":1003,"x_min":40,"x_max":967,"o":"m 596 -10 q 697 -119 629 -64 q 822 -196 761 -174 q 967 -219 883 -218 l 967 -247 q 511 -142 647 -247 q 376 0 425 -76 q 133 170 226 43 q 40 460 40 297 q 170 800 40 661 q 499 939 300 939 q 830 801 703 939 q 957 460 957 663 q 857 153 957 285 q 596 -10 757 22 m 506 889 q 276 769 353 889 q 200 458 200 649 q 278 151 200 274 q 492 29 357 29 q 718 150 639 29 q 797 458 797 271 q 724 769 797 649 q 506 889 651 889 z "},"R":{"ha":926,"x_min":13,"x_max":910,"o":"m 517 440 l 774 113 q 910 28 840 28 l 910 0 l 683 0 l 361 431 l 274 431 l 274 113 q 300 50 274 72 q 396 28 326 28 l 396 0 l 13 0 l 13 28 q 108 50 82 28 q 135 117 135 72 l 135 800 q 108 867 135 844 q 13 889 82 889 l 13 917 l 410 917 q 531 906 475 917 q 640 869 588 894 q 722 793 692 843 q 753 674 753 743 q 517 440 753 482 m 340 479 q 608 674 608 479 q 544 818 608 775 q 340 861 479 861 q 274 804 274 861 l 274 479 l 340 479 z "},"S":{"ha":772,"x_min":65,"x_max":690,"o":"m 554 894 q 568 896 563 894 q 577 899 574 897 q 585 905 581 900 q 590 913 589 910 q 596 923 592 915 q 601 935 600 931 l 632 935 l 660 639 l 629 639 q 527 824 585 761 q 369 886 469 886 q 271 852 311 886 q 231 757 231 818 q 241 706 231 731 q 264 665 251 682 q 303 628 276 649 q 347 597 331 607 q 398 565 363 586 q 446 538 433 544 q 543 474 508 499 q 617 414 578 450 q 673 338 656 378 q 690 251 690 299 q 605 51 690 119 q 386 -17 519 -17 q 267 6 335 -17 q 179 28 200 28 q 138 -18 144 28 l 107 -18 l 65 278 l 96 278 q 218 89 142 147 q 381 31 294 31 q 498 68 443 31 q 553 172 553 106 q 509 299 553 250 q 356 415 465 347 q 311 442 349 419 q 255 476 274 464 q 202 517 236 489 q 151 567 168 544 q 119 625 133 590 q 104 696 104 660 q 174 871 104 804 q 353 938 243 938 q 480 916 426 938 q 554 894 533 894 z "},"T":{"ha":849,"x_min":24,"x_max":824,"o":"m 817 917 l 824 679 l 794 679 q 782 737 786 721 q 765 783 778 753 q 735 826 751 814 q 688 850 718 839 q 615 861 657 861 l 493 861 l 493 113 q 629 28 493 28 l 629 0 l 218 0 l 218 28 q 354 117 354 28 l 354 861 l 232 861 q 160 850 190 861 q 113 826 129 839 q 83 783 96 814 q 65 737 69 753 q 53 679 61 721 l 24 679 l 31 917 l 817 917 z "},"U":{"ha":1003,"x_min":26,"x_max":978,"o":"m 788 311 l 788 800 q 658 889 788 889 l 658 917 l 978 917 l 978 889 q 849 804 849 889 l 849 307 q 826 174 849 232 q 767 81 803 115 q 682 23 731 46 q 587 -8 633 0 q 490 -17 540 -17 q 394 -8 439 -17 q 302 23 349 0 q 223 81 256 46 q 169 176 190 117 q 149 311 149 235 l 149 800 q 122 867 149 844 q 26 889 96 889 l 26 917 l 410 917 l 410 889 q 314 867 340 889 q 288 804 288 844 l 288 307 q 517 42 288 42 q 722 116 657 42 q 788 311 788 190 z "},"V":{"ha":1003,"x_min":24,"x_max":971,"o":"m 515 -17 l 146 804 q 24 889 107 889 l 24 917 l 393 917 l 393 889 q 321 881 347 889 q 290 857 294 872 q 288 830 286 842 q 299 800 290 818 q 557 224 557 225 l 786 800 q 792 838 790 818 q 768 873 793 857 q 692 889 743 889 l 692 917 l 971 917 l 971 889 q 903 867 926 889 q 863 804 881 846 l 535 -17 l 515 -17 z "},"W":{"ha":1311,"x_min":10,"x_max":1294,"o":"m 425 -17 l 132 804 q 10 889 93 889 l 10 917 l 351 917 l 351 889 q 297 882 318 889 q 267 867 275 875 q 260 844 260 858 q 263 822 260 829 q 271 800 265 814 l 475 260 l 628 660 l 576 804 q 454 889 538 889 l 454 917 l 810 917 l 810 889 q 744 880 768 889 q 714 855 719 871 q 709 827 708 839 q 715 800 710 815 l 919 260 l 1124 800 q 1129 838 1128 818 q 1106 873 1131 857 q 1029 889 1081 889 l 1029 917 l 1294 917 l 1294 889 q 1227 867 1250 889 q 1186 804 1204 846 l 886 -17 l 869 -17 l 658 575 l 442 -17 l 425 -17 z "},"X":{"ha":1003,"x_min":10,"x_max":979,"o":"m 429 444 l 188 804 q 38 889 131 889 l 38 917 l 449 917 l 449 889 q 383 883 407 889 q 351 869 360 876 q 344 848 342 863 q 352 825 347 833 q 368 800 357 817 l 526 564 l 718 800 q 638 889 786 889 l 638 917 l 965 917 l 965 889 q 874 864 918 889 q 801 804 831 839 q 563 510 563 511 l 829 113 q 902 48 871 68 q 979 28 933 28 l 979 0 l 568 0 l 568 28 q 633 34 610 28 q 666 47 657 40 q 672 69 675 54 q 665 92 669 83 q 649 117 660 100 l 465 390 l 243 117 q 227 83 231 101 q 249 46 224 64 q 338 28 275 28 l 338 0 l 10 0 l 10 28 q 87 48 56 28 q 160 113 118 68 l 429 444 z "},"Y":{"ha":1003,"x_min":24,"x_max":978,"o":"m 579 428 l 579 113 q 715 28 579 28 l 715 0 l 304 0 l 304 28 q 440 117 440 28 l 440 392 l 160 804 q 24 889 99 889 l 24 917 l 421 917 l 421 889 q 360 883 383 889 q 328 869 338 876 q 319 847 319 861 q 322 824 319 832 q 332 800 325 815 l 546 479 l 749 800 q 763 824 758 814 q 768 847 767 833 q 762 868 769 860 q 731 883 754 876 q 671 889 708 889 l 671 917 l 978 917 l 978 889 q 828 804 883 889 l 579 428 z "},"Z":{"ha":849,"x_min":13,"x_max":822,"o":"m 804 917 l 804 910 l 197 56 l 597 56 q 720 108 668 56 q 793 238 772 160 l 822 238 l 799 0 l 13 0 l 13 28 l 611 861 l 275 861 q 188 848 222 861 q 132 804 153 835 q 101 750 111 774 q 79 679 92 726 l 50 679 l 74 917 l 804 917 z "},"[":{"ha":463,"x_min":104,"x_max":406,"o":"m 104 936 l 406 936 l 406 897 l 292 897 q 235 874 256 897 q 214 817 214 850 l 214 -90 q 235 -148 214 -125 q 292 -171 256 -171 l 406 -171 l 406 -197 l 104 -197 l 104 936 z "},"\\":{"ha":386,"x_min":-101,"x_max":515,"o":"m -1 961 l 515 -8 l 415 -8 l -101 961 l -1 961 z "},"]":{"ha":463,"x_min":57,"x_max":358,"o":"m 358 936 l 358 -197 l 57 -197 l 57 -171 l 171 -171 q 228 -148 207 -171 q 249 -90 249 -125 l 249 817 q 228 874 249 850 q 171 897 207 897 l 57 897 l 57 936 l 358 936 z "},"^":{"ha":651,"x_min":14,"x_max":639,"o":"m 275 924 l 378 924 l 639 358 l 528 358 l 326 824 l 125 358 l 14 358 l 275 924 z "},"_":{"ha":694,"x_min":-15,"x_max":713,"o":"m 713 -185 l -15 -185 l -15 -118 l 713 -118 l 713 -185 z "},"`":{"ha":463,"x_min":67,"x_max":389,"o":"m 389 708 l 333 708 q 226 772 304 726 q 99 853 147 818 q 71 893 75 869 q 85 935 67 917 q 186 921 128 978 q 389 708 321 778 z "},"a":{"ha":617,"x_min":43,"x_max":608,"o":"m 379 401 l 379 499 q 288 600 379 600 q 204 584 229 600 q 179 547 179 568 q 183 521 179 533 q 188 490 188 508 q 172 442 188 461 q 125 424 157 424 q 83 439 99 424 q 67 476 67 454 q 132 596 67 553 q 288 639 197 639 q 447 595 396 639 q 499 449 499 551 l 499 118 q 531 60 499 60 q 558 67 542 60 q 586 83 575 75 l 596 90 l 608 58 q 531 -3 551 10 q 482 -17 510 -17 q 406 11 432 -17 q 379 86 379 39 q 189 -17 268 -17 q 85 23 126 -17 q 43 125 43 63 q 175 317 43 250 q 379 401 271 365 m 379 124 l 379 367 q 300 338 329 350 q 236 303 271 325 q 185 251 201 281 q 168 183 168 221 q 191 101 168 133 q 261 69 214 69 q 379 124 315 69 z "},"b":{"ha":694,"x_min":0,"x_max":653,"o":"m 221 538 q 417 639 307 639 q 590 559 526 639 q 653 313 653 479 q 567 81 653 175 q 347 -14 481 -14 q 244 -6 296 -14 q 149 29 193 3 q 104 94 104 56 l 104 801 q 82 860 104 849 q 0 858 60 872 l 0 879 l 221 951 l 221 538 m 221 489 l 221 107 q 262 49 221 71 q 358 28 303 28 q 485 106 439 28 q 532 285 532 183 q 486 481 532 406 q 358 556 440 556 q 221 489 271 556 z "},"c":{"ha":617,"x_min":40,"x_max":579,"o":"m 556 493 q 538 450 556 468 q 493 432 519 432 q 448 451 465 432 q 431 493 431 471 q 329 600 431 600 q 219 553 264 600 q 158 454 174 507 q 142 354 142 401 q 203 162 142 244 q 353 79 264 79 q 479 127 417 79 q 560 221 542 175 l 579 210 q 301 -17 486 -17 q 119 77 197 -17 q 40 308 40 171 q 126 543 40 447 q 329 639 213 639 q 497 595 438 639 q 556 493 556 551 z "},"d":{"ha":694,"x_min":42,"x_max":681,"o":"m 474 574 l 474 801 q 451 860 474 849 q 369 858 429 872 l 369 879 l 590 951 l 590 143 q 593 110 590 121 q 607 93 596 99 q 628 87 618 88 q 665 86 638 86 q 681 86 675 86 l 681 65 l 474 -14 l 474 86 q 278 -14 400 -14 q 105 66 168 -14 q 42 313 42 146 q 126 544 42 449 q 333 639 210 639 q 474 574 422 639 m 474 144 l 474 479 q 336 597 438 597 q 209 519 256 597 q 163 340 163 442 q 208 137 163 218 q 336 56 254 56 q 474 144 432 56 z "},"e":{"ha":617,"x_min":38,"x_max":581,"o":"m 554 378 l 139 378 l 139 374 q 199 165 139 250 q 350 79 260 79 q 476 127 414 79 q 557 221 539 175 l 581 206 q 474 47 549 111 q 299 -17 400 -17 q 116 77 194 -17 q 38 308 38 171 q 117 544 38 449 q 313 639 197 639 q 490 566 425 639 q 554 378 554 493 m 285 593 q 189 553 231 593 q 139 424 147 514 l 417 424 q 285 593 403 593 z "},"f":{"ha":463,"x_min":24,"x_max":518,"o":"m 251 576 l 251 106 q 356 21 251 21 l 356 0 l 31 0 l 31 21 q 135 106 135 21 l 135 576 l 24 576 l 24 624 l 135 624 l 135 649 q 200 861 135 785 q 379 938 265 938 q 481 908 444 938 q 518 842 518 879 q 501 805 518 821 q 463 789 483 789 q 417 807 432 789 q 399 846 401 825 q 382 885 396 867 q 340 903 368 903 q 274 860 297 903 q 251 765 251 818 l 251 624 l 425 624 l 425 576 l 251 576 z "},"g":{"ha":694,"x_min":43,"x_max":643,"o":"m 531 583 l 624 590 l 624 535 l 529 535 q 560 422 560 482 q 499 265 560 325 q 336 206 438 206 q 261 214 297 206 q 188 128 188 169 q 201 101 188 111 q 247 88 215 92 q 297 84 278 85 q 358 83 317 83 q 583 47 522 83 q 643 -74 643 11 q 542 -231 643 -167 q 289 -296 440 -296 q 100 -248 157 -296 q 43 -150 43 -200 q 51 -108 43 -128 q 85 -64 60 -87 q 122 -32 111 -40 q 172 6 132 -24 q 124 33 143 14 q 106 72 106 53 q 127 134 106 103 q 169 182 149 165 q 226 225 190 199 q 134 303 167 250 q 101 422 101 356 q 171 576 101 513 q 346 639 240 639 q 451 611 397 639 q 531 583 506 583 m 364 -17 l 211 -10 q 139 -124 139 -67 q 188 -192 139 -164 q 347 -219 236 -219 q 535 -182 467 -219 q 603 -96 603 -144 q 548 -34 603 -51 q 364 -17 493 -17 m 317 594 q 240 556 264 594 q 219 456 217 518 q 256 306 224 367 q 356 244 288 244 q 451 383 457 244 q 414 532 447 469 q 317 594 381 594 z "},"h":{"ha":694,"x_min":10,"x_max":679,"o":"m 217 482 l 217 106 q 238 40 217 58 q 307 21 258 21 l 307 0 l 10 0 l 10 21 q 79 40 58 21 q 100 106 100 58 l 100 797 q 83 858 100 844 q 10 864 67 871 l 10 885 l 217 951 l 217 522 q 431 639 314 639 q 589 425 589 639 l 589 106 q 610 40 589 58 q 679 21 631 21 l 679 0 l 382 0 l 382 21 q 451 40 431 21 q 472 106 472 58 l 472 471 q 443 541 472 515 q 369 567 414 567 q 217 482 289 567 z "},"i":{"ha":386,"x_min":31,"x_max":356,"o":"m 251 106 q 356 21 251 21 l 356 0 l 31 0 l 31 21 q 135 106 135 21 l 135 489 q 113 548 135 536 q 31 546 90 560 l 31 567 l 251 639 l 251 106 m 133 926 q 144 937 133 926 q 185 947 154 947 q 236 926 215 947 q 257 875 257 906 q 236 824 257 844 q 185 803 215 803 q 133 824 154 803 q 113 875 113 844 q 133 926 113 906 z "},"j":{"ha":386,"x_min":-76,"x_max":285,"o":"m 161 926 q 172 937 161 926 q 213 947 182 947 q 264 926 243 947 q 285 875 285 906 q 264 824 285 844 q 213 803 243 803 q 161 824 182 803 q 140 875 140 844 q 161 926 140 906 m 279 -4 q 63 -293 279 -293 q -40 -269 -4 -293 q -76 -211 -76 -246 q -59 -174 -76 -190 q -21 -158 -42 -158 q 19 -174 3 -158 q 44 -208 36 -189 q 67 -243 53 -228 q 101 -258 82 -258 q 137 -247 124 -258 q 156 -211 150 -236 q 162 -170 161 -186 q 163 -121 163 -154 l 163 489 q 140 548 163 536 q 58 546 118 560 l 58 567 l 279 639 l 279 -4 z "},"k":{"ha":694,"x_min":10,"x_max":693,"o":"m 231 307 l 231 106 q 335 21 231 21 l 335 0 l 10 0 l 10 21 q 114 106 114 21 l 114 801 q 99 860 114 850 q 24 858 83 871 l 24 879 l 231 951 l 231 367 l 407 519 q 433 544 422 533 q 450 566 443 554 q 453 585 457 578 q 433 599 450 593 q 383 604 415 604 l 383 625 l 663 625 l 663 604 q 467 519 567 604 l 325 392 l 553 106 q 622 45 581 69 q 693 21 663 21 l 693 0 l 400 0 l 400 21 q 434 26 422 21 q 450 35 446 31 q 448 53 454 40 q 438 72 442 67 q 421 94 435 78 q 413 106 415 101 l 247 322 l 231 307 z "},"l":{"ha":386,"x_min":31,"x_max":356,"o":"m 251 106 q 356 21 251 21 l 356 0 l 31 0 l 31 21 q 135 106 135 21 l 135 801 q 113 860 135 849 q 31 858 90 872 l 31 879 l 251 951 l 251 106 z "},"m":{"ha":1081,"x_min":17,"x_max":1058,"o":"m 224 482 l 224 106 q 244 40 224 58 q 314 21 265 21 l 314 0 l 17 0 l 17 21 q 86 40 65 21 q 107 106 107 58 l 107 485 q 90 545 107 532 q 17 551 74 558 l 17 572 l 224 639 l 224 522 q 438 639 321 639 q 588 511 557 639 q 810 639 689 639 q 968 425 968 639 l 968 106 q 989 40 968 58 q 1058 21 1010 21 l 1058 0 l 761 0 l 761 21 q 831 40 810 21 q 851 106 851 58 l 851 471 q 822 541 851 515 q 749 567 793 567 q 593 479 668 567 q 596 425 596 446 l 596 106 q 617 40 596 58 q 686 21 638 21 l 686 0 l 389 0 l 389 21 q 458 40 438 21 q 479 106 479 58 l 479 471 q 450 541 479 515 q 376 567 421 567 q 224 482 296 567 z "},"n":{"ha":694,"x_min":10,"x_max":679,"o":"m 217 482 l 217 106 q 238 40 217 58 q 307 21 258 21 l 307 0 l 10 0 l 10 21 q 79 40 58 21 q 100 106 100 58 l 100 485 q 83 545 100 532 q 10 551 67 558 l 10 572 l 217 639 l 217 522 q 431 639 314 639 q 589 425 589 639 l 589 106 q 610 40 589 58 q 679 21 631 21 l 679 0 l 382 0 l 382 21 q 451 40 431 21 q 472 106 472 58 l 472 471 q 443 541 472 515 q 369 567 414 567 q 217 482 289 567 z "},"o":{"ha":694,"x_min":42,"x_max":653,"o":"m 128 544 q 171 592 128 544 q 347 639 214 639 q 567 544 481 639 q 653 313 653 450 q 560 81 653 176 q 333 -14 468 -14 q 122 80 201 -14 q 42 313 42 174 q 128 544 42 450 m 322 597 q 201 533 240 597 q 163 368 163 469 q 172 248 163 304 q 203 140 182 192 q 267 58 225 89 q 364 28 308 28 q 484 92 444 28 q 524 257 524 157 q 514 377 524 321 q 483 485 504 433 q 419 567 461 536 q 322 597 378 597 z "},"p":{"ha":694,"x_min":3,"x_max":653,"o":"m 224 42 l 224 -186 q 328 -271 224 -271 l 328 -292 l 3 -292 l 3 -271 q 107 -186 107 -271 l 107 489 q 85 548 107 536 q 3 546 63 560 l 3 567 l 224 639 l 224 540 q 417 639 308 639 q 653 313 653 639 q 567 81 653 175 q 347 -14 481 -14 q 224 42 279 -14 m 224 485 l 224 119 q 364 28 274 28 q 484 99 444 28 q 524 271 524 169 q 517 383 524 335 q 492 472 510 431 q 443 534 475 513 q 364 556 411 556 q 224 485 279 556 z "},"q":{"ha":694,"x_min":42,"x_max":694,"o":"m 486 585 l 576 642 l 590 642 l 590 -186 q 694 -271 590 -271 l 694 -292 l 369 -292 l 369 -271 q 474 -186 474 -271 l 474 88 q 278 -14 388 -14 q 105 66 168 -14 q 42 313 42 146 q 128 544 42 450 q 347 639 214 639 q 486 585 439 639 m 474 136 l 474 518 q 336 597 433 597 q 209 519 256 597 q 163 340 163 442 q 208 144 163 219 q 336 69 254 69 q 474 136 424 69 z "},"r":{"ha":463,"x_min":3,"x_max":465,"o":"m 224 453 l 224 106 q 328 21 224 21 l 328 0 l 3 0 l 3 21 q 107 106 107 21 l 107 489 q 85 548 107 536 q 3 546 63 560 l 3 567 l 224 639 l 224 508 q 388 639 311 639 q 442 618 418 639 q 465 568 465 597 q 406 504 465 504 q 360 527 385 504 q 315 550 335 550 q 224 453 278 550 z "},"s":{"ha":540,"x_min":68,"x_max":483,"o":"m 383 610 q 424 625 415 601 l 443 625 l 443 436 l 424 436 q 379 544 394 526 q 264 606 329 606 q 190 580 222 606 q 158 514 158 554 q 163 486 158 500 q 179 459 168 472 q 201 436 190 446 q 230 414 211 426 q 258 395 249 401 q 290 376 268 389 q 319 360 313 364 q 443 274 415 303 q 483 171 483 229 q 423 34 483 85 q 281 -17 363 -17 q 196 2 250 -17 q 117 21 142 21 q 93 -6 93 21 l 74 -6 l 74 210 l 93 210 q 143 76 114 117 q 272 17 186 17 q 352 43 318 17 q 386 115 386 69 q 376 161 386 140 q 338 203 365 182 q 293 236 310 225 q 232 272 276 247 q 106 363 143 324 q 68 463 68 403 q 120 588 68 538 q 258 639 172 639 q 303 635 285 639 q 345 622 322 631 q 383 610 368 614 z "},"t":{"ha":386,"x_min":17,"x_max":385,"o":"m 272 56 q 322 67 303 56 q 368 107 340 78 l 385 92 q 203 -17 304 -17 q 143 -3 167 -17 q 110 36 119 11 q 97 83 100 61 q 93 133 93 104 l 93 576 l 17 576 q 60 617 33 592 q 140 706 88 643 q 210 813 193 768 l 210 624 l 349 624 l 349 576 l 210 576 l 210 140 q 229 76 210 97 q 272 56 249 56 z "},"u":{"ha":694,"x_min":10,"x_max":679,"o":"m 472 143 l 472 519 q 451 585 472 567 q 382 604 431 604 l 382 625 l 589 625 l 589 140 q 606 80 589 93 q 679 74 622 67 l 679 53 l 472 -14 l 472 103 q 258 -14 375 -14 q 100 200 100 -14 l 100 519 q 79 585 100 567 q 10 604 58 604 l 10 625 l 217 625 l 217 154 q 246 84 217 110 q 319 58 275 58 q 472 143 400 58 z "},"v":{"ha":694,"x_min":24,"x_max":658,"o":"m 342 -14 l 117 519 q 24 604 83 604 l 24 625 l 301 625 l 301 604 q 247 519 214 604 l 388 175 l 521 519 q 530 549 528 538 q 529 575 532 561 q 510 597 526 589 q 465 604 494 604 l 465 625 l 658 625 l 658 604 q 624 590 639 604 q 603 562 610 575 q 585 519 596 549 l 368 -14 l 342 -14 z "},"w":{"ha":1003,"x_min":24,"x_max":964,"o":"m 317 -14 l 103 519 q 83 565 90 551 q 61 591 76 578 q 24 604 46 604 l 24 625 l 274 625 l 274 604 q 219 519 188 604 q 361 158 361 160 l 486 431 l 450 519 q 431 565 438 551 q 408 591 424 578 q 371 604 393 604 l 371 625 l 642 625 l 642 604 q 567 519 532 604 q 703 169 703 171 l 844 519 q 789 604 878 604 l 789 625 l 964 625 l 964 604 q 904 519 938 604 l 683 -14 l 664 -14 l 513 364 l 336 -14 l 317 -14 z "},"x":{"ha":694,"x_min":24,"x_max":669,"o":"m 351 419 l 419 519 q 438 578 446 551 q 385 604 431 604 l 385 625 l 599 625 l 599 604 q 544 590 568 604 q 511 563 521 576 q 481 519 501 550 l 382 372 l 551 106 q 669 21 606 21 l 669 0 l 386 0 l 386 21 q 454 44 450 21 q 426 106 458 67 l 317 274 l 289 232 q 231 147 260 190 l 203 106 q 172 39 168 53 q 224 21 178 21 l 224 0 l 24 0 l 24 21 q 135 106 76 21 q 160 142 144 119 q 208 212 175 164 q 264 292 242 260 l 285 322 l 157 519 q 124 567 133 554 q 92 592 114 579 q 39 604 69 604 l 39 625 l 322 625 l 322 604 q 288 519 233 604 q 351 419 351 421 z "},"y":{"ha":694,"x_min":31,"x_max":665,"o":"m 344 25 l 124 519 q 31 604 85 604 l 31 625 l 308 625 l 308 604 q 254 519 218 604 q 407 176 407 178 l 528 519 q 538 558 536 543 q 525 589 540 574 q 472 604 510 604 l 472 625 l 665 625 l 665 604 q 631 590 647 604 q 609 560 615 575 q 592 519 603 546 l 389 -14 q 353 -111 367 -78 q 317 -185 339 -144 q 274 -246 296 -226 q 222 -279 253 -265 q 153 -293 192 -293 q 69 -270 97 -293 q 42 -211 42 -247 q 59 -174 42 -190 q 97 -158 76 -158 q 156 -174 125 -158 q 206 -189 186 -189 q 344 25 279 -189 z "},"z":{"ha":617,"x_min":42,"x_max":586,"o":"m 581 625 l 581 608 q 194 42 196 42 l 415 42 q 514 72 486 42 q 564 193 542 103 l 586 193 l 567 0 l 42 0 l 42 17 l 419 583 l 232 583 q 97 446 97 583 l 75 446 l 81 625 l 581 625 z "},"{":{"ha":667,"x_min":156,"x_max":507,"o":"m 156 390 q 269 506 269 400 l 269 797 q 314 894 269 839 q 433 949 358 949 l 507 949 l 507 901 l 451 901 q 368 811 368 901 l 368 551 q 324 423 368 478 q 228 369 281 368 q 324 316 281 371 q 368 188 368 261 l 368 -74 q 451 -164 368 -164 l 507 -164 l 507 -211 l 433 -211 q 314 -156 358 -211 q 269 -60 269 -101 l 269 229 q 156 346 269 336 l 156 390 z "},"|":{"ha":278,"x_min":94,"x_max":192,"o":"m 192 950 l 192 -174 l 94 -174 l 94 950 l 192 950 z "},"}":{"ha":667,"x_min":160,"x_max":511,"o":"m 511 390 l 511 346 q 397 229 397 336 l 397 -60 q 353 -156 397 -101 q 233 -211 308 -211 l 160 -211 l 160 -164 l 215 -164 q 299 -74 299 -164 l 299 188 q 342 316 299 261 q 439 369 386 371 q 342 423 386 368 q 299 551 299 478 l 299 811 q 215 901 299 901 l 160 901 l 160 949 l 233 949 q 353 894 308 949 q 397 797 397 839 l 397 506 q 511 390 397 400 z "},"~":{"ha":751,"x_min":28,"x_max":689,"o":"m 28 300 q 86 428 28 381 q 236 475 144 475 q 358 447 299 475 q 468 390 418 418 q 556 361 518 361 q 616 389 593 361 q 639 450 639 417 l 689 450 q 631 322 689 369 q 481 275 572 275 q 358 303 418 275 q 249 360 299 332 q 161 389 199 389 q 101 361 124 389 q 78 300 78 333 l 28 300 z "}}}
